<svg width="38" height="38" viewBox="0 0 38 38" fill="none" xmlns="http://www.w3.org/2000/svg">
<path d="M14.65 37.5H2.9C2.1 37.5 1.41667 37.2167 0.85 36.65C0.283333 36.0833 0 35.4 0 34.6V7.05C0 6.25 0.258333 5.56667 0.775 5C1.29167 4.43333 1.78333 4.15 2.25 4.15H12.3C12.5 3.18333 12.9667 2.375 13.7 1.725C14.4333 1.075 15.3167 0.75 16.35 0.75C17.35 0.75 18.225 1.075 18.975 1.725C19.725 2.375 20.1833 3.18333 20.35 4.15H30.45C31.25 4.15 31.9333 4.43333 32.5 5C33.0667 5.56667 33.35 6.25 33.35 7.05V16.5H31.1V7.05C31.1 6.88333 31.0333 6.73333 30.9 6.6C30.7667 6.46667 30.6167 6.4 30.45 6.4H25.15V12H8.2V6.4H2.9C2.73333 6.4 2.58333 6.46667 2.45 6.6C2.31667 6.73333 2.25 6.88333 2.25 7.05V34.6C2.25 34.7667 2.31667 34.9083 2.45 35.025C2.58333 35.1417 2.73333 35.2 2.9 35.2H14.65V37.5ZM24 36.3L16.55 28.85L18.2 27.2L24 33L35.8 21.2L37.45 22.85L24 36.3ZM17 6.5C17.5 6.5 17.925 6.325 18.275 5.975C18.625 5.625 18.8 5.2 18.8 4.7C18.8 4.16667 18.625 3.73333 18.275 3.4C17.925 3.06667 17.5 2.9 17 2.9C16.5 2.9 16.075 3.06667 15.725 3.4C15.375 3.73333 15.2 4.16667 15.2 4.7C15.2 5.2 15.375 5.625 15.725 5.975C16.075 6.325 16.5 6.5 17 6.5Z" fill="white"/>
</svg>
