<svg xmlns="http://www.w3.org/2000/svg" width="77.642" height="96.368" viewBox="0 0 77.642 96.368"><g transform="translate(0 0)"><path d="M746.692,347.238c0,10.444-.035,20.888.037,31.331a5.007,5.007,0,0,1-1.658,3.959q-8.323,8.191-16.468,16.562a5.272,5.272,0,0,1-4.176,1.821q-21.789-.124-43.579.012c-2.174.017-2.62-.567-2.6-2.653.1-13.1.053-26.2.053-39.306,0-.475.027-.951,0-1.424-.056-.844.288-1.152,1.154-1.152.885,0,1.149.352,1.137,1.173-.03,1.9-.008,3.8-.008,5.7,0,11.014.046,22.028-.044,33.04-.015,1.858.472,2.345,2.332,2.333q20.222-.124,40.445,0c1.845.011,2.4-.446,2.342-2.325-.139-4.838.02-9.684-.084-14.524-.035-1.614.432-2.074,2.042-2.04,4.935.1,9.875-.03,14.81.076,1.627.034,2.033-.457,2.029-2.051q-.079-30.191.018-60.384c.009-1.988-.815-2.039-2.332-2.035q-23.641.06-47.282.024c-.664,0-1.329-.016-1.993-.008-.781.01-.894-.469-.886-1.107.008-.606.018-1.154.837-1.152.57,0,1.139-.012,1.709-.012,16.52,0,33.041.037,49.561-.049,2.046-.011,2.7.365,2.676,2.581C746.616,326.16,746.692,336.7,746.692,347.238Z" transform="translate(-669.112 -304.555)" fill="#fff"/><path d="M680.762,319.115c0,5.316.034,10.633-.011,15.949-.052,6.167-4.38,10.709-10.164,10.753s-10.282-4.482-10.326-10.585c-.06-8.449-.032-16.9.007-25.347,0-.881-.592-2.328,1.245-2.209,1.588.1.977,1.4.981,2.185.045,8.259.012,16.519.034,24.778.015,5.227,3.286,8.87,7.922,8.9,4.652.029,8.012-3.61,8.024-8.793q.037-15.807,0-31.614c0-3-1.247-4.608-3.454-4.581s-3.37,1.6-3.374,4.663c-.013,9.873.024,19.747-.053,29.62-.007.9.908,2.571-1.017,2.67-2.008.1-1.169-1.618-1.175-2.514-.065-10.063-.056-20.126-.033-30.189.009-3.947,2.224-6.49,5.591-6.543,3.48-.055,5.778,2.543,5.8,6.626C680.781,308.292,680.763,313.7,680.762,319.115Z" transform="translate(-660.18 -296.253)" fill="#003b87"/><path d="M728.425,349.148c5.509,0,11.018-.021,16.526.024.779.007,2.013-.592,2.014,1.115s-1.233,1.115-2.012,1.117q-16.526.052-33.052,0c-.779,0-2.013.591-2.014-1.115s1.233-1.11,2.013-1.116C717.407,349.127,722.916,349.148,728.425,349.148Z" transform="translate(-684.759 -322.373)" fill="#fff"/><path d="M728.721,387.309c5.129,0,10.259-.063,15.386.056.962.022,2.811-1.029,2.857,1.01.053,2.4-2,1.141-2.993,1.151q-15.528.152-31.058.009c-.958-.008-2.811,1.022-2.856-1.013-.054-2.394,1.991-1.121,2.994-1.148C718.271,387.235,723.5,387.309,728.721,387.309Z" transform="translate(-684.843 -341.156)" fill="#fff"/><path d="M728.425,425.818c5.509,0,11.018-.021,16.526.024.779.007,2.013-.592,2.014,1.115s-1.233,1.115-2.012,1.117q-16.526.052-33.052,0c-.779,0-2.013.592-2.014-1.115s1.232-1.11,2.013-1.116C717.407,425.8,722.916,425.818,728.425,425.818Z" transform="translate(-684.759 -360.285)" fill="#fff"/><path d="M720,361.609c2.755,0,5.509.014,8.263-.008.917-.007,1.664-.034,1.6,1.287-.064,1.256-.895.99-1.591.992-5.6.014-11.207,0-16.81.016-.919,0-1.664.03-1.6-1.289.064-1.256.9-.984,1.592-.989C714.306,361.6,717.155,361.609,720,361.609Z" transform="translate(-684.746 -328.564)" fill="#fff"/><path d="M719.769,402.227c-2.754,0-5.508-.006-8.262,0-.87,0-1.7.138-1.646-1.238.049-1.227.822-1.039,1.548-1.04q8.4-.01,16.809-.007c.87,0,1.7-.139,1.642,1.237-.067,1.478-1.1,1.015-1.829,1.026C725.277,402.254,722.523,402.228,719.769,402.227Z" transform="translate(-684.745 -347.526)" fill="#fff"/><path d="M719.674,440.562c-2.659,0-5.319.028-7.977-.018-.729-.013-1.763.454-1.829-1.025-.062-1.376.771-1.24,1.641-1.238q8.4.01,16.81.007c.726,0,1.5-.187,1.548,1.04.055,1.376-.776,1.24-1.646,1.237C725.372,440.557,722.523,440.562,719.674,440.562Z" transform="translate(-684.748 -366.482)" fill="#fff"/></g></svg>