<svg xmlns="http://www.w3.org/2000/svg" width="60.272" height="59.261" viewBox="0 0 60.272 59.261">
  <g id="Group_92" data-name="Group 92" transform="translate(0.272 -0.264)">
    <g id="shamsi-logo" transform="translate(-37.378 -40.535)">
      <path id="Path_1" data-name="Path 1" d="M69.282,100.061a14.478,14.478,0,0,1-7.8-2.446c-.727-.481-1.407-1.04-2.1-1.569a.644.644,0,0,0-.463-.162,18.053,18.053,0,0,1-6.035-.445,12.552,12.552,0,0,1-8.788-7.5,15.4,15.4,0,0,1-1.19-5.265.855.855,0,0,0-.343-.649,15.643,15.643,0,0,1-4.61-6.371,11.124,11.124,0,0,1-.8-5.115,14.292,14.292,0,0,1,1.767-5.524,17.881,17.881,0,0,1,2.452-3.348.8.8,0,0,0,.222-.673,15.707,15.707,0,0,1,.619-5.933,12.764,12.764,0,0,1,8.626-8.614,18.335,18.335,0,0,1,5.722-.9.851.851,0,0,0,.655-.276A15.221,15.221,0,0,1,63.77,41.3a13.171,13.171,0,0,1,10.272,1.352,18.307,18.307,0,0,1,3.2,2.3.669.669,0,0,0,.487.174,15.638,15.638,0,0,1,7.375,1.545,12.574,12.574,0,0,1,6.51,7.88,16.893,16.893,0,0,1,.715,4.346.562.562,0,0,0,.2.421,15.839,15.839,0,0,1,3.8,5.241A12.227,12.227,0,0,1,96.012,75.1a16.532,16.532,0,0,1-2.507,3.715.8.8,0,0,0-.21.583,14.506,14.506,0,0,1-1.827,7.477,12.742,12.742,0,0,1-6.558,5.584,14.774,14.774,0,0,1-3.552.95.642.642,0,0,0-.451.252,18.1,18.1,0,0,1-5.542,4.761A13.539,13.539,0,0,1,69.282,100.061ZM53.088,81.084a.333.333,0,0,0,.048-.036c-.132-.264-.264-.535-.4-.8A13.951,13.951,0,0,1,51.58,70.6a14.889,14.889,0,0,1,6.371-9.161A17.486,17.486,0,0,1,70.3,58.5a16.46,16.46,0,0,1,10.242,4.965,14.3,14.3,0,0,1,3.691,14.648c-.138.487-.331.962-.5,1.437a8.791,8.791,0,0,0,1.575-2.272,17.733,17.733,0,0,0-5.332-20.4,18.16,18.16,0,0,0-16.842-3.516A17.734,17.734,0,0,0,50.7,64.687a9.972,9.972,0,0,0-.805,3.685c.012,1.569.072,3.132.162,4.7a14.855,14.855,0,0,0,.337,2.573,15.754,15.754,0,0,0,2.26,4.929A4.84,4.84,0,0,0,53.088,81.084Zm14.636,7.327c.637-.036,1.226-.054,1.809-.12a6.986,6.986,0,0,0,1.551-.276,8.254,8.254,0,1,0-10.8-4.833C61.251,85.917,64.443,88.826,67.725,88.412Zm8.361-1.984c.072-.042.144-.072.216-.12a12.356,12.356,0,0,0,3.084-2.723A11.415,11.415,0,0,0,81.772,73.2a12.334,12.334,0,0,0-6.6-8.079A14.843,14.843,0,0,0,65.9,63.611a13.753,13.753,0,0,0-8.632,4.562,11.4,11.4,0,0,0-2.6,11.126,12.44,12.44,0,0,0,5.4,7.069.2.2,0,0,0,.084.03l.054-.036a11.062,11.062,0,0,1-3.324-8.806,10.918,10.918,0,0,1,4.49-8.295,11.287,11.287,0,0,1,14.769,1.046,10.979,10.979,0,0,1,3.294,7.471A11.317,11.317,0,0,1,76.086,86.428Zm5.211-4.22a.031.031,0,0,0,.024.012,1.206,1.206,0,0,0,.084-.1A13.436,13.436,0,0,0,83.84,70.986a14.312,14.312,0,0,0-7.369-9.7A16.9,16.9,0,0,0,65.507,59.3a15.8,15.8,0,0,0-7.754,3.216c-4.238,3.348-6.317,7.682-5.68,13.134a13.318,13.318,0,0,0,3.721,7.784c.042.042.09.078.138.12a4.441,4.441,0,0,0-.427-.691,11.643,11.643,0,0,1-2.08-5.9,12.063,12.063,0,0,1,3.017-9.07A15,15,0,0,1,67.472,62.7a15.516,15.516,0,0,1,6.468,1.028,13.761,13.761,0,0,1,7.934,7.261,11.753,11.753,0,0,1,.222,9.491C81.862,81.06,81.568,81.625,81.3,82.208Zm-6.937,4.6a10.564,10.564,0,1,0-13.26-.691A9.027,9.027,0,0,1,73.664,73.294,8.722,8.722,0,0,1,76.9,78.65,8.927,8.927,0,0,1,74.361,86.813ZM42.606,60.323l.1.018c.156-.138.307-.276.463-.409a30.81,30.81,0,0,1,7.79-4.815.75.75,0,0,0,.439-.457,27.724,27.724,0,0,1,4.274-7.646c.126-.156.258-.313.415-.5-.12,0-.2-.006-.27,0a18.151,18.151,0,0,0-4.6.884A12.278,12.278,0,0,0,44.691,52.4a12.486,12.486,0,0,0-1.869,5.344C42.708,58.6,42.672,59.463,42.606,60.323Zm17.9,35.452a.524.524,0,0,1,.1.054,18.351,18.351,0,0,0,3.12,1.905,12.132,12.132,0,0,0,10.357.168,15.676,15.676,0,0,0,5.494-4.178c.018-.024.024-.054.018-.042-.451,0-.914-.006-1.37,0a28.154,28.154,0,0,1-7.91-1.136.8.8,0,0,0-.631.072,31.273,31.273,0,0,1-5.65,2.272C62.892,95.216,61.726,95.474,60.506,95.775Zm-16.7-12.7a17.8,17.8,0,0,0,.679,3.264,11.834,11.834,0,0,0,6.672,7.532A15.241,15.241,0,0,0,57.2,95.06c.343.006.685,0,1.1,0a1.527,1.527,0,0,0-.15-.174A27.254,27.254,0,0,1,53.281,88a1.149,1.149,0,0,0-.733-.625,29.955,29.955,0,0,1-6.131-2.651C45.533,84.2,44.685,83.633,43.8,83.074ZM41.746,62.583c-2.537,3.029-4.039,6.359-3.5,10.345a13.259,13.259,0,0,0,4.592,8.091,2.374,2.374,0,0,0,.036-.343c.108-1.136.174-2.278.337-3.408a29.184,29.184,0,0,1,1.467-5.506.53.53,0,0,0-.006-.361A28.373,28.373,0,0,1,41.746,62.583ZM58.36,45.59a.827.827,0,0,0,.156.024,29.2,29.2,0,0,1,7.94,1.713,1.759,1.759,0,0,0,1.683-.06,2.074,2.074,0,0,1,.289-.12,27.954,27.954,0,0,1,6.642-1.809c.349-.048.691-.09,1.064-.132C70.6,40.5,63.439,40.722,58.36,45.59ZM91.341,58.261c-.457-3.8-1.8-7.1-4.917-9.473a13.512,13.512,0,0,0-7.832-2.579,7.2,7.2,0,0,0,.5.6,30.144,30.144,0,0,1,4.61,7.093.552.552,0,0,0,.343.313,27.988,27.988,0,0,1,5.229,2.621C89.965,57.288,90.626,57.762,91.341,58.261ZM45.329,72.633c-.03.066-.054.108-.072.156a26.157,26.157,0,0,0-1.533,8.776.443.443,0,0,0,.186.391,26.348,26.348,0,0,0,6.876,3.859c.559.216,1.124.421,1.731.643-.03-.1-.042-.138-.054-.174a38.268,38.268,0,0,1-2.242-6.516,1.906,1.906,0,0,0-.4-.745,40.124,40.124,0,0,1-4.406-6.251C45.395,72.735,45.365,72.693,45.329,72.633ZM45.2,70.211c.03-.006.066-.018.1-.024.042-.084.078-.174.12-.258a42.355,42.355,0,0,1,3.643-6.636,2.358,2.358,0,0,0,.349-.908,37.37,37.37,0,0,1,1.4-6c.024-.078.042-.156.066-.252-.048.006-.066.006-.078.018a29.082,29.082,0,0,0-7.832,5.163.6.6,0,0,0-.2.565,23.659,23.659,0,0,0,1.124,4.953C44.289,67.969,44.757,69.087,45.2,70.211Zm48.033,7.447a12.205,12.205,0,0,0-.878-17.041c-.042.565-.066,1.07-.114,1.569A28.018,28.018,0,0,1,90.782,68.6a.67.67,0,0,0,.036.559,26.866,26.866,0,0,1,2.23,7.183C93.109,76.751,93.163,77.165,93.229,77.658ZM68.759,92.1c-.108-.048-.174-.078-.246-.1a40.41,40.41,0,0,1-5.548-2.452,3.415,3.415,0,0,0-1.407-.4,40.973,40.973,0,0,1-5.668-.866c-.535-.12-1.07-.252-1.653-.4.264.457.5.872.739,1.28a24.944,24.944,0,0,0,4.28,5.464.736.736,0,0,0,.775.246,7.939,7.939,0,0,1,.842-.144,31.728,31.728,0,0,0,7.6-2.482C68.56,92.2,68.639,92.162,68.759,92.1ZM52.469,54.475a1.989,1.989,0,0,0,.192-.06,40.369,40.369,0,0,1,5.891-1.743,2.76,2.76,0,0,0,1.118-.517,36.2,36.2,0,0,1,4.244-2.8c.727-.415,1.467-.811,2.218-1.226-.054-.024-.09-.048-.126-.06A29.454,29.454,0,0,0,57.7,46.486a.505.505,0,0,0-.427.174A26.391,26.391,0,0,0,52.469,54.475Zm30.2-.781a27.079,27.079,0,0,0-5.29-7.411.461.461,0,0,0-.325-.09,24.956,24.956,0,0,0-6.949,1.395c-.475.168-.938.355-1.449.547.084.048.108.072.138.084A42.9,42.9,0,0,1,75.5,51.83a2.312,2.312,0,0,0,.739.289c1.491.337,2.987.649,4.478,1C81.369,53.266,81.983,53.489,82.668,53.693Zm-.805,38.7a12.789,12.789,0,0,0,8-4.737,13.516,13.516,0,0,0,2.573-7.6.485.485,0,0,0-.084.018c-.054.042-.1.09-.156.138a28.13,28.13,0,0,1-6.263,4.412,1.082,1.082,0,0,0-.553.643,29.952,29.952,0,0,1-2.963,6.275C82.235,91.826,82.049,92.108,81.862,92.391Zm-10.7-.565a1.7,1.7,0,0,0,.162.054,25.694,25.694,0,0,0,8.824.811.6.6,0,0,0,.481-.27,28.186,28.186,0,0,0,3.5-6.438c.066-.174.132-.343.216-.559-.108.042-.174.06-.234.084a40.329,40.329,0,0,1-6.918,2.416,2.958,2.958,0,0,0-.9.439c-1.178.811-2.326,1.653-3.5,2.464C72.281,91.189,71.722,91.489,71.163,91.826Zm19.108-21.8c-.042.084-.054.108-.066.138a35.447,35.447,0,0,1-2.452,5.067,4.16,4.16,0,0,0-.5,1.611,40.255,40.255,0,0,1-1.022,5.59c-.1.379-.21.757-.325,1.166.078-.036.114-.054.15-.072a25.48,25.48,0,0,0,6.167-4.719.548.548,0,0,0,.168-.457,23.891,23.891,0,0,0-1.515-6.816C90.7,71.04,90.494,70.553,90.271,70.025ZM90.1,67.668c.03-.066.054-.108.072-.156A25.772,25.772,0,0,0,91.4,59.9a.52.52,0,0,0-.168-.343,23.543,23.543,0,0,0-5.061-3.33c-.577-.289-1.166-.553-1.8-.86.048.144.072.222.1.3a36.315,36.315,0,0,1,1.791,5.578,3.347,3.347,0,0,0,.607,1.3,33.963,33.963,0,0,1,3.12,4.935C90.019,67.536,90.055,67.6,90.1,67.668ZM49.1,64.951c-.066.084-.09.108-.108.138a35.268,35.268,0,0,0-3.144,6.1.386.386,0,0,0,.024.283,38.769,38.769,0,0,0,2.723,4.352c.331.451.679.89,1.022,1.334A46.852,46.852,0,0,1,49.1,64.951ZM61.371,52.076a50.972,50.972,0,0,1,12.364-.283c-.012-.036-.012-.054-.024-.066a1.741,1.741,0,0,0-.174-.114,37.106,37.106,0,0,0-5.891-2.933.5.5,0,0,0-.361.024,39.011,39.011,0,0,0-4.839,2.663C62.087,51.6,61.732,51.836,61.371,52.076ZM51.5,80.928a.366.366,0,0,0,0,.084,42.088,42.088,0,0,0,2.146,5.644.418.418,0,0,0,.258.2c1.509.349,3.011.7,4.526,1.016.637.132,1.292.18,1.935.27-1.569-1.094-3.192-2.1-4.664-3.288C54.231,83.651,52.908,82.251,51.5,80.928Zm34.731-3.09-.048-.018c-.054.066-.114.126-.162.192-.421.631-.872,1.25-1.256,1.905a18.311,18.311,0,0,1-3.588,4.418c-.739.655-1.533,1.244-2.3,1.863-.174.144-.337.307-.511.457a.169.169,0,0,0,.126.018,43.915,43.915,0,0,0,5.782-2.212,1.051,1.051,0,0,0,.649-.769c.355-1.5.721-2.993,1.07-4.49C86.106,78.752,86.154,78.289,86.232,77.839ZM57.5,53.9c-.018-.024-.036-.042-.054-.066a.289.289,0,0,0-.072,0c-1.713.565-3.426,1.13-5.139,1.713a.448.448,0,0,0-.228.27c-.439,1.545-.866,3.1-1.292,4.64-.054.192-.084.385-.12.583A51.391,51.391,0,0,1,57.5,53.9Zm20.311-.553c-.012.024-.018.048-.03.072A50.584,50.584,0,0,1,85.12,60.3a.747.747,0,0,0,0-.12A40.747,40.747,0,0,0,83.3,55.106a.457.457,0,0,0-.246-.228c-.878-.295-1.755-.6-2.639-.854C79.554,53.771,78.677,53.567,77.811,53.344Zm9.118,10.693c-.03.012-.06.024-.084.036a47.139,47.139,0,0,1,.691,9.557,1.051,1.051,0,0,0,.192-.264,32,32,0,0,0,1.966-4.4.427.427,0,0,0-.042-.307c-.4-.763-.8-1.533-1.238-2.278C87.945,65.583,87.428,64.819,86.929,64.038ZM74.607,88.526c-.27.03-.469.036-.661.078-.956.2-1.917.391-2.867.619a11.692,11.692,0,0,1-4.767.228c-.529-.09-1.07-.1-1.611-.15-.006.03-.012.06-.018.084a.84.84,0,0,0,.1.06,40.022,40.022,0,0,0,4.965,1.966.519.519,0,0,0,.379-.048q2.119-1.316,4.22-2.645A1.556,1.556,0,0,0,74.607,88.526ZM58.132,54.6c1.07-.517,2.176-1.046,3.2-1.545A4.158,4.158,0,0,0,58.132,54.6Zm19.084-.523a3.853,3.853,0,0,0-3.041-1.256Zm7.429,7.069,1.172,2.272A3.035,3.035,0,0,0,84.645,61.147ZM50.137,64.14c.367-.751.733-1.5,1.1-2.248A3.033,3.033,0,0,0,50.137,64.14Z" transform="translate(0)" fill="#fff"/>
      <path id="Path_2" data-name="Path 2" d="M693.1,333c.367.072.7.144,1.07.222-.066-.186-.12-.331-.186-.511.21-.078.415-.15.6-.216.042.06.06.078.06.09-.114.373.1.553.385.715a5.466,5.466,0,0,1,.517.385c.264-.277.4-.7.89-.878-.114.18-.2.307-.271.433a3.325,3.325,0,0,0-.276.493c-.066.168-.042.337.18.349.258-.313.511-.625.775-.926.012-.012.1.042.21.084-.21.246-.4.475-.619.721.168.054.325.1.481.162.174.072.391.132.295.4a.427.427,0,0,1-.565.24c-.379-.234-.739-.5-1.112-.745s-.715-.487-1.082-.715c-.054-.036-.18.006-.258.042A.849.849,0,0,1,693.1,333Zm3.294,1.2c.06.3.186.379.457.307A.4.4,0,0,0,696.394,334.2Z" transform="translate(-616.563 -274.167)" fill="#fff"/>
      <path id="Path_3" data-name="Path 3" d="M487.033,274.342c-.042-.319-.084-.625-.12-.926-.018-.15.012-.283.27-.24,0,.379.006.763-.006,1.148a.286.286,0,0,1-.144.222,1.366,1.366,0,0,1-.9.1,1.256,1.256,0,0,0-.457.066c-.222.036-.21.192-.2.367a.326.326,0,0,1-.138.246c-.042.024-.186-.042-.228-.1-.162-.228-.319-.415-.649-.337-.084.024-.2-.078-.307-.12-.523.355-.745.343-.848-.072l.349-.036c.12-.012.24-.018.361-.03-.042-.27-.084-.529-.12-.787.036-.012.066-.018.1-.03.138.282.283.559.421.835.277-.042.457-.451.811-.15.018-.1.024-.174.042-.264-.138-.006-.252-.012-.433-.018.15-.138.27-.24.451-.4.048.27.09.475.132.715a1.224,1.224,0,0,0,.769-.523A1.175,1.175,0,0,0,487.033,274.342Z" transform="translate(-419.374 -218.401)" fill="#fff"/>
      <path id="Path_4" data-name="Path 4" d="M349.37,319.58c-.066-.054-.168-.126-.307-.228-.078.144-.15.289-.222.427a1.355,1.355,0,0,1-.775.757c-.144.048-.234.264-.355.391-.2.2-.319.192-.511-.048.2-.15.391-.3.6-.457-.192-.21-.373-.415-.553-.613l.054-.072c.282.168.559.337.872.523.186-.21.379-.421.571-.637-.012-.018-.024-.03-.036-.048-.192.09-.379.18-.577.27.048-.361.607-.763,1.31-.932-.048.126-.09.246-.15.421.2-.15.355-.259.511-.367l-.679-.956.072-.072c.12.108.252.2.367.319a3.871,3.871,0,0,0,.313.379,1.374,1.374,0,0,0,.373.144l.078-.1c-.21-.373-.421-.751-.631-1.124.024-.018.048-.042.072-.06a2.557,2.557,0,0,1,.361.361,7.252,7.252,0,0,1,.391.7.256.256,0,0,1-.114.373C350.061,319.141,349.725,319.357,349.37,319.58Z" transform="translate(-291.455 -260.068)" fill="#fff"/>
      <path id="Path_5" data-name="Path 5" d="M627.09,291.6c-.066-.006-.078,0-.084-.006a4.051,4.051,0,0,0-1.479-.637c-.289-.1-.571-.2-.775.21-.114-.216-.2-.385-.325-.625-.114.421-.216.787-.319,1.154l-.108-.036a3.187,3.187,0,0,1,.3-1.148.426.426,0,0,1,.661-.114c.174.114.355.21.541.331.21-.379.216-.842.6-1.13.018.469-.445.9-.012,1.407.048-.186.084-.325.12-.469.228.06.439.12.673.18-.054.186-.1.349-.156.523a.377.377,0,0,0,.433-.258c.072-.15.1-.319.18-.457a2.6,2.6,0,0,1,.306-.373l.108.072C627.534,290.694,627.312,291.151,627.09,291.6Z" transform="translate(-551.617 -233.845)" fill="#fff"/>
      <path id="Path_6" data-name="Path 6" d="M428.736,291.12l.132.15a.619.619,0,0,0,.908.054.218.218,0,0,0-.006-.21,2.124,2.124,0,0,0-.3-.246c.283-.222.547-.421.823-.637-.1-.343-.445-.637-.343-1.13.084.078.162.12.192.186.12.295.216.6.325.9.09.24-.024.379-.24.463-.126.054-.252.1-.409.162l.547.283a7.237,7.237,0,0,1-.817.637c-.427.24-.709.084-.811-.385l-.036-.2C428.712,291.138,428.724,291.132,428.736,291.12Z" transform="translate(-368.056 -233.375)" fill="#fff"/>
      <path id="Path_7" data-name="Path 7" d="M592.388,289.6c-.072-.132-.144-.264-.222-.4.4.012.523.1.517.367a.3.3,0,0,1-.325.325c-.325.006-.649,0-1,0-.018-.126-.03-.277-.054-.457l.577.21c.066-.078.126-.15.2-.24.1.078.192.15.289.222Z" transform="translate(-520.882 -233.469)" fill="#fff"/>
      <path id="Path_8" data-name="Path 8" d="M573.55,296c.138.823.7.433,1.118.445a.809.809,0,0,1-1.166.246C573.376,296.571,573.376,296.451,573.55,296Z" transform="translate(-504.07 -239.86)" fill="#fff"/>
      <path id="Path_9" data-name="Path 9" d="M553.951,271.8a2.315,2.315,0,0,1,.006,1.455C553.867,272.792,553.645,272.335,553.951,271.8Z" transform="translate(-485.631 -217.115)" fill="#fff"/>
      <path id="Path_10" data-name="Path 10" d="M761.15,363.8a2.34,2.34,0,0,1-.95,1.04C760.447,364.437,760.6,363.944,761.15,363.8Z" transform="translate(-679.63 -303.585)" fill="#fff"/>
      <path id="Path_11" data-name="Path 11" d="M459.237,288.134a2.171,2.171,0,0,1-.637-1.334A2.252,2.252,0,0,1,459.237,288.134Z" transform="translate(-396.159 -231.213)" fill="#fff"/>
      <path id="Path_12" data-name="Path 12" d="M399.2,315.438a3.452,3.452,0,0,1-.9-1.238C398.661,314.314,398.985,314.759,399.2,315.438Z" transform="translate(-339.483 -256.967)" fill="#fff"/>
      <path id="Path_13" data-name="Path 13" d="M684.1,305.816c.108-.457.1-.968.625-1.316A2.719,2.719,0,0,1,684.1,305.816Z" transform="translate(-608.104 -247.85)" fill="#fff"/>
      <path id="Path_14" data-name="Path 14" d="M716.145,350.3c.084.138.156.2.15.258a.214.214,0,0,1-.144.15c-.054,0-.156-.084-.156-.132C715.989,350.51,716.061,350.438,716.145,350.3Z" transform="translate(-638.081 -290.897)" fill="#fff"/>
      <path id="Path_15" data-name="Path 15" d="M584.8,284.938c-.114.078-.18.15-.234.144s-.114-.084-.168-.132c.06-.06.108-.144.174-.168C584.616,284.77,584.689,284.854,584.8,284.938Z" transform="translate(-514.397 -229.316)" fill="#fff"/>
    </g>
  </g>
</svg>
