<?xml version="1.0" encoding="utf-8"?>
<!-- Generator: Adobe Illustrator 21.0.0, SVG Export Plug-In . SVG Version: 6.00 Build 0)  -->
<svg version="1.1" id="Layer_1" xmlns="http://www.w3.org/2000/svg" xmlns:xlink="http://www.w3.org/1999/xlink" x="0px" y="0px"
	 viewBox="0 0 1080 1080" style="enable-background:new 0 0 1080 1080;" xml:space="preserve">
<path d="M572.4,1026.7c-48-1.2-90.8-15-129.7-40.7c-12.1-8-23.4-17.3-34.9-26.1c-2.4-1.8-4.5-2.9-7.7-2.7
	c-33.8,2.6-67.4,1.3-100.4-7.4c-68.8-18.1-118-59.2-146.2-124.8c-12-27.9-18.1-57.3-19.8-87.6c-0.3-4.8-2.2-7.8-5.7-10.8
	c-33.7-29.4-61.1-63.6-76.7-106c-10-27.4-16.7-55.7-13.3-85.1c3.7-32.5,13.1-63.3,29.4-91.9c11.5-20.1,25-38.8,40.8-55.7
	c3.2-3.4,4-6.7,3.7-11.2c-2.4-33.5,0.1-66.6,10.3-98.7c22.9-72.7,72.1-119.3,143.5-143.3c30.9-10.4,62.8-14.6,95.2-14.9
	c4.5,0,7.7-1.4,10.9-4.6c31.1-30.5,66.6-54.2,108.9-66.1c60.1-16.9,116.9-7.3,170.9,22.5c19.3,10.6,36.8,23.8,53.3,38.2
	c2.5,2.1,4.9,3,8.1,2.9c42.8-0.6,84.1,6.3,122.7,25.7c55.2,27.8,90.2,72.6,108.3,131.1c7.3,23.5,10.9,47.7,11.9,72.3
	c0.1,3,1.2,5,3.3,7c26.5,25.2,48.9,53.4,63.3,87.2c25.3,59.2,22.4,117.8-5.4,175.5c-10.9,22.6-25.2,43-41.7,61.8
	c-2.5,2.9-3.6,5.8-3.5,9.7c0.5,44-8.5,85.9-30.4,124.4c-25.1,44.1-62.4,74.1-109.1,92.9c-19,7.7-38.7,13-59.1,15.8
	c-3.1,0.4-5.4,1.6-7.5,4.2c-25.7,32.2-55.7,59.5-92.2,79.2C641.7,1016.8,607.5,1025.6,572.4,1026.7z M303,711
	c0.3-0.2,0.6-0.4,0.8-0.6c-2.2-4.4-4.4-8.9-6.7-13.3c-25.9-51.2-31.8-105-19.2-160.5c14.7-64.9,51.8-115,106-152.4
	c62-42.8,131.2-57.7,205.5-49c66.1,7.7,124,34.4,170.4,82.6c66.6,69.2,87.5,150.8,61.4,243.7c-2.3,8.1-5.5,16-8.3,23.9
	c9.9-11.8,20.4-23.4,26.2-37.8c20.7-50.7,26.1-103.5,17.3-157.3c-12.1-74-47.7-135.4-106-182.1c-83.1-66.7-177.9-86-280.2-58.5
	c-100.3,27-169.4,91.2-207,188.5c-7.6,19.6-13.6,40-13.4,61.3c0.2,26.1,1.2,52.1,2.7,78.2c0.8,14.3,2.3,28.8,5.6,42.8
	c6.9,29.8,21.2,56.5,37.6,82C297.6,705.5,300.5,708.1,303,711z M546.5,832.9c10.6-0.6,20.4-0.9,30.1-2c8.7-1,17.7-1.7,25.8-4.6
	c60-22.2,96-86.7,85-151.2c-13.4-78.5-91.5-129.2-168.7-109.7c-79.2,20-123.1,103.4-95.9,180.5C438.8,791.4,491.9,839.8,546.5,832.9
	z M685.6,799.9c1.2-0.7,2.4-1.2,3.6-2c19.6-12.3,36.8-27.3,51.3-45.3c41.2-51.1,55.6-108.9,39.7-172.7
	c-15.3-61.6-54.6-105.1-109.8-134.4C622,420,570.1,412.4,516.1,420.3c-56.8,8.3-105.6,32.6-143.6,75.9
	c-47.2,53.7-62.3,115.9-43.2,185.1c14.1,50.9,46.6,88.6,89.9,117.6c0.4,0.3,0.9,0.4,1.4,0.5c0.3-0.2,0.6-0.4,0.9-0.6
	c-40.1-40.8-59-89.7-55.3-146.5c3.7-57.2,29.2-103.4,74.7-138c72-54.9,178.4-50.4,245.7,17.4c34.1,34.4,52.7,75.9,54.8,124.3
	C743.8,711.8,724.5,759.6,685.6,799.9z M772.3,729.7c0.1,0.1,0.2,0.2,0.4,0.2c0.5-0.5,1-1.1,1.4-1.6
	c40.7-55.8,54.9-117.9,40.5-185.3c-15.5-72.6-59-125.3-122.6-161.4c-56.7-32.2-118-42-182.4-33c-47.6,6.6-91.2,23.7-129,53.5
	c-70.5,55.7-105.1,127.8-94.5,218.5c5.9,49.8,27.1,93.1,61.9,129.5c0.7,0.7,1.5,1.3,2.3,2c-2-4.2-4.5-7.9-7.1-11.5
	c-20.6-29.6-32-62.5-34.6-98.2c-4.1-57.1,12.8-107.8,50.2-150.9c48.3-55.6,110.7-82.6,183.5-86.3c37-1.9,73.1,3.7,107.6,17.1
	c59.5,23.2,105.4,61.9,132,120.8c23.4,51.8,24.7,104.8,3.7,157.9C781.7,710.6,776.8,720,772.3,729.7z M656.9,806.3
	c53.1-36.8,87.4-110,66.3-188.3c-20.8-77.1-92.4-130.4-172.2-128.9c-81.5,1.5-149.9,56.3-168.6,135.7
	c-16.7,70.5,13.8,137.6,53.9,170c-54.9-68.8-38.7-159,15.1-207.2c54.6-48.8,137.7-51.7,193.9-6.2c28.6,23.2,47.3,52.7,53.8,89.1
	C708.3,722.6,694,768.1,656.9,806.3z M128.6,365.6c0.5,0.1,1.1,0.2,1.6,0.3c2.6-2.3,5.1-4.6,7.7-6.8c38.9-33.6,82.7-59.4,129.6-80.1
	c3.7-1.6,5.8-3.8,7.3-7.6c17.4-45.9,40.2-88.8,71.1-127.2c2.1-2.6,4.3-5.2,6.9-8.4c-2,0-3.3-0.1-4.5,0c-26.1,2-51.7,6.1-76.5,14.7
	c-45.4,15.8-82.3,42.6-108.5,83.3c-17.5,27.1-27.2,57-31.1,88.9C130.3,336.9,129.7,351.3,128.6,365.6z M426.4,955.4
	c0.7,0.4,1.3,0.5,1.7,0.9c16.4,11.9,33.3,23.2,51.9,31.7c57,26.1,114.5,28.2,172.3,2.8c36-15.8,65.7-40.1,91.4-69.5
	c0.3-0.4,0.4-0.9,0.3-0.7c-7.5,0-15.2-0.1-22.8,0c-44.9,0.6-88.6-7-131.6-18.9c-4-1.1-7-0.6-10.5,1.2c-30.1,15.5-61.4,28.4-94,37.8
	C466.1,946.1,446.7,950.4,426.4,955.4z M148.5,744.1c2.3,18.4,5.6,36.6,11.3,54.3c18.7,57.9,55,100.4,111,125.3
	c32,14.2,65.9,19.3,100.6,19.8c5.7,0.1,11.4,0,18.3,0c-1.4-1.7-1.9-2.4-2.5-2.9c-33.3-33.8-59.6-72.4-81-114.6
	c-2.8-5.5-6.5-8.6-12.2-10.4c-35.5-11.2-69.8-25.3-102-44.1C177.3,762.8,163.2,753.4,148.5,744.1z M114.3,403.2
	C72.1,453.6,47.1,509,56,575.3c7.4,54.9,36.4,98,76.4,134.6c0.5-2,0.4-3.9,0.6-5.7c1.8-18.9,2.9-37.9,5.6-56.7
	c4.6-31.4,13.8-61.7,24.4-91.6c0.6-1.8,0.7-4.4-0.1-6C139,503.9,122.4,455.5,114.3,403.2z M390.7,120.5c1,0.2,1.8,0.4,2.6,0.4
	c45.4,3.3,89.4,12.9,132.1,28.5c10,3.7,18.8,4.8,28-1c1.4-0.9,3.2-1.3,4.8-2c35.7-14.2,72.3-25,110.5-30.1
	c5.8-0.8,11.5-1.5,17.7-2.2C594.4,35.8,475.2,39.5,390.7,120.5z M939.4,331.3c-7.6-63.2-29.9-118.2-81.8-157.6
	c-38.4-29.2-82.8-40.8-130.3-42.9c2.6,3.7,5.6,6.8,8.4,10c31.6,35.4,56.2,75.4,76.7,118c1.3,2.7,2.9,4.2,5.7,5.2
	c30.5,11.7,59.7,25.9,87,43.6C916.5,315.1,927.5,323,939.4,331.3z M173.9,570.4c-0.5,1.1-0.9,1.8-1.2,2.6
	c-16.6,47.3-25.6,95.8-25.5,146c0,2.8,0.8,4.7,3.1,6.5c34.7,27.6,73.3,48.1,114.4,64.2c9.3,3.6,18.7,7,28.8,10.7
	c-0.5-1.6-0.7-2.3-0.9-2.9c-15.9-34.9-27.9-71.2-37.3-108.4c-1.1-4.4-3.6-8.9-6.6-12.4c-27.4-32.6-52.5-66.7-73.3-104
	C175,572.1,174.5,571.4,173.9,570.4z M171.7,530.1c0.5-0.1,1.1-0.3,1.6-0.4c0.7-1.4,1.3-2.9,2-4.3c16.8-38.7,37.2-75.3,60.6-110.4
	c2.9-4.4,5-9.9,5.8-15.1C247,366,254.2,332.6,265,300c0.4-1.3,0.7-2.6,1.1-4.2c-0.8,0.1-1.1,0.1-1.3,0.3
	c-47.7,22.2-91.9,49.6-130.3,85.9c-3,2.8-3.7,5.6-3.3,9.4c3.6,28.1,9.2,55.7,18.7,82.4C156.6,492.8,164.4,511.4,171.7,530.1z
	 M970.8,654c34-44.7,54.4-93,50.2-149.1c-3.9-52.8-28.2-96-64.8-134.4c-0.7,9.4-1.1,17.8-1.9,26.1c-3.7,36.5-12.1,72-24.2,106.7
	c-1.2,3.5-0.9,6.2,0.6,9.3c17.5,38.2,30.8,77.8,37.1,119.5C968.8,638.9,969.7,645.8,970.8,654z M563.7,894.3
	c-1.8-0.8-2.9-1.3-4.1-1.7c-31.6-11.8-62.8-24.4-92.3-40.8c-7.4-4.1-15.1-6-23.4-6.7c-31.8-2.6-63.2-7.4-94.3-14.4
	c-8.9-2-17.8-4.2-27.5-6.6c4.4,7.6,8.3,14.5,12.3,21.3c19.9,33.3,42.8,64.2,71.2,90.9c3.9,3.6,7.4,5.7,12.9,4.1
	c4.5-1.3,9.4-1.6,14-2.4c44-8,85.9-22.6,126.5-41.3C560.4,896,561.7,895.3,563.7,894.3z M292.7,268.3c1.7-0.5,2.5-0.7,3.2-1
	c32-12,64.6-22,98-29c6.9-1.5,13-4.3,18.6-8.6c22.4-17.2,46-32.7,70.6-46.6c12.1-6.9,24.4-13.5,36.9-20.4c-0.9-0.4-1.5-0.8-2.1-1
	c-44.9-15-90.8-24.6-138.2-26.3c-3-0.1-5,0.7-7.1,2.9C337.4,176,313.2,220.5,292.7,268.3z M795.1,255.3c-23.6-46.1-51.1-88-88-123.3
	c-1.2-1.2-3.6-1.6-5.4-1.5c-39.6,2.3-78.2,9.9-115.6,23.2c-7.9,2.8-15.6,5.9-24.1,9.1c1.4,0.8,1.8,1.2,2.3,1.4
	c39.1,16.6,76.1,36.9,111.6,60.1c3.6,2.4,8.1,3.8,12.3,4.8c24.8,5.6,49.7,10.8,74.5,16.6C773.5,248.2,783.7,251.9,795.1,255.3z
	 M781.7,899.1c53.6-11,99.6-34.6,133.1-78.8c28.3-37.3,40-80.2,42.8-126.4c-0.9,0.2-1.3,0.2-1.4,0.3c-0.9,0.7-1.7,1.5-2.6,2.3
	c-31.2,29.4-66.3,53.5-104.2,73.4c-4.7,2.5-7.5,5.8-9.2,10.7c-12.5,36.7-28.7,71.5-49.3,104.4C787.9,889.7,784.8,894.4,781.7,899.1z
	 M603.7,889.7c1.1,0.4,1.9,0.7,2.7,0.9c48.2,12.5,97,18,146.8,13.5c3.7-0.3,5.9-1.7,8-4.5c24.5-32.9,43-69.1,58.2-107.1
	c1.1-2.9,2.2-5.7,3.6-9.3c-1.8,0.7-2.9,1-3.9,1.4c-37.1,17.1-75.6,30.1-115.1,40.2c-5.3,1.4-10.4,4.2-14.9,7.3
	c-19.6,13.5-38.7,27.5-58.3,41C622.3,879.1,613,884.1,603.7,889.7z M921.6,527c-0.7,1.4-0.9,1.8-1.1,2.3
	c-11,29.3-25.3,57.1-40.8,84.3c-4.8,8.5-7.2,17.3-8.3,26.8c-3.8,31.3-8.8,62.4-17,93c-1.7,6.3-3.5,12.6-5.4,19.4
	c1.3-0.6,1.9-0.9,2.5-1.2c38-21.2,72.6-46.8,102.6-78.5c2.2-2.3,3-4.5,2.8-7.6c-2.8-39.1-11.3-76.8-25.2-113.4
	C928.8,543.9,925.3,535.8,921.6,527z M918.8,487.8c0.5-1.1,0.9-1.8,1.2-2.6c13.1-41.2,20-83.4,20.4-126.6c0-1.9-1.3-4.4-2.8-5.7
	c-25.5-22.4-54-40.3-84.2-55.4c-9.6-4.8-19.4-9.2-30-14.3c0.8,2.4,1.2,3.7,1.7,5c12.4,30.1,22.4,61.1,29.8,92.8
	c1.9,8,5.1,15.1,10.1,21.6c19.6,25.9,37,53.2,51.9,82.1C917.4,485.6,918,486.6,918.8,487.8z M236.6,442.6c-1.1,1.4-1.5,1.8-1.8,2.3
	c-21,32-37.9,66.1-52.3,101.5c-0.5,1.3-0.3,3.4,0.4,4.7c13.7,25,28.4,49.4,45.3,72.4c5.5,7.5,11.3,14.8,17,22.2
	C233.3,578.5,230.8,511.3,236.6,442.6z M440.8,228.4c68.5-9.6,136.9-11.8,205.7-4.7c-0.2-0.6-0.2-0.9-0.4-1.1
	c-0.9-0.7-1.9-1.3-2.9-1.9c-31.1-19.4-64-35.2-98-48.8c-1.7-0.7-4.3-0.4-6,0.4c-27.9,12.8-54.7,27.7-80.5,44.3
	C452.7,220.4,446.8,224.4,440.8,228.4z M276.6,708.4c0,0.8-0.1,1.1,0,1.4c9.9,32.1,21.3,63.5,35.7,93.9c0.7,1.5,2.7,3.1,4.3,3.4
	c25.1,5.8,50.1,11.7,75.3,16.9c10.6,2.2,21.5,3,32.2,4.5c-26.1-18.2-53.1-34.9-77.6-54.7C322,753.7,300,730.4,276.6,708.4z
	 M854.4,657c-0.3-0.1-0.5-0.2-0.8-0.3c-0.9,1.1-1.9,2.1-2.7,3.2c-7,10.5-14.5,20.8-20.9,31.7c-16.3,27.5-35.8,52.3-59.7,73.5
	c-12.3,10.9-25.5,20.7-38.2,31c-2.9,2.4-5.6,5.1-8.5,7.6c1,0.5,1.5,0.4,2.1,0.3c32.9-10.2,65.1-22.1,96.2-36.8
	c5.9-2.8,9.4-6.5,10.8-12.8c5.9-24.9,12-49.8,17.8-74.7C852.3,672.2,853.1,664.5,854.4,657z M376.4,258.7c-0.3-0.4-0.6-0.7-0.9-1.1
	c-0.4,0-0.9-0.1-1.2,0c-28.5,9.4-57,18.8-85.5,28.5c-1.6,0.6-3.3,2.7-3.8,4.5c-7.3,25.7-14.4,51.5-21.5,77.2c-0.9,3.2-1.4,6.4-2,9.7
	C296.7,334.6,333.7,294,376.4,258.7z M714.3,249.5c-0.2,0.4-0.3,0.8-0.5,1.2c44.3,34,85,72,122.1,114.5c0-1.1,0.1-1.6,0-2
	c-8.6-28.7-17.9-57.1-30.2-84.4c-0.7-1.6-2.5-3.3-4.1-3.8c-14.6-4.9-29.2-9.9-43.9-14.2C743.3,256.6,728.7,253.2,714.3,249.5z
	 M866,427.4c-0.5,0.2-1,0.4-1.4,0.6c9.6,52.6,12.7,105.6,11.5,159c1.5-1.5,2.4-2.9,3.2-4.4c13.4-23.3,23-48.3,32.7-73.2
	c0.6-1.4,0-3.7-0.7-5.1c-6.7-12.7-13.3-25.5-20.6-37.9C882.9,453.1,874.3,440.4,866,427.4z M661,834.8c-4.5,0.5-7.8,0.6-11,1.3
	c-15.9,3.3-31.9,6.5-47.7,10.3c-26.2,6.3-52.5,8.4-79.3,3.8c-8.8-1.5-17.8-1.7-26.8-2.5c-0.1,0.5-0.2,1-0.3,1.4
	c0.5,0.3,1.1,0.8,1.6,1c27,12.4,54.2,24,82.6,32.7c1.9,0.6,4.6,0.2,6.3-0.8c23.5-14.6,46.9-29.3,70.2-44
	C658,837.3,659,836.4,661,834.8z M386.9,270.4c17.8-8.6,36.2-17.4,53.3-25.7C419.1,244.6,401,254.2,386.9,270.4z M704.4,261.7
	c-15.1-13.1-30.9-23.6-50.6-20.9C669.8,247.4,687,254.5,704.4,261.7z M828,379.3c6.5,12.6,13,25.2,19.5,37.8
	C847.4,401.2,839.2,389.4,828,379.3z M253.9,429.1c6.1-12.5,12.2-24.9,18.3-37.4C262.2,402.2,253.2,413.2,253.9,429.1z"/>
<path d="M693.1,340.9c6.1,1.2,11.6,2.4,17.8,3.7c-1.1-3.1-2-5.5-3.1-8.5c3.5-1.3,6.9-2.5,10-3.6c0.7,1,1,1.3,1,1.5
	c-1.9,6.2,1.7,9.2,6.4,11.9c3,1.7,5.5,4.1,8.6,6.4c4.4-4.6,6.6-11.7,14.8-14.6c-1.9,3-3.3,5.1-4.5,7.2c-1.6,2.7-3.5,5.3-4.6,8.2
	c-1.1,2.8-0.7,5.6,3,5.8c4.3-5.2,8.5-10.4,12.9-15.4c0.2-0.2,1.7,0.7,3.5,1.4c-3.5,4.1-6.7,7.9-10.3,12c2.8,0.9,5.4,1.7,8,2.7
	c2.9,1.2,6.5,2.2,4.9,6.6c-1.3,3.6-6.3,5.9-9.4,4c-6.3-3.9-12.3-8.3-18.5-12.4c-6-4-11.9-8.1-18-11.9c-0.9-0.6-3,0.1-4.3,0.7
	C705.4,349,696.6,348.1,693.1,340.9z M747.9,360.8c1,5,3.1,6.3,7.6,5.1C754.5,362.2,752,360.8,747.9,360.8z"/>
<path d="M545.4,292.7c-0.7-5.3-1.4-10.4-2-15.4c-0.3-2.5,0.2-4.7,4.5-4c0,6.3,0.1,12.7-0.1,19.1c0,1.3-1.2,3.2-2.4,3.7
	c-4.8,2-9.7,3-15,1.6c-2.3-0.6-5,0.7-7.6,1.1c-3.7,0.6-3.5,3.2-3.4,6.1c0.1,1.4-1.1,3.3-2.3,4.1c-0.7,0.4-3.1-0.7-3.8-1.7
	c-2.7-3.8-5.3-6.9-10.8-5.6c-1.4,0.4-3.3-1.3-5.1-2c-8.7,5.9-12.4,5.7-14.1-1.2c2-0.2,3.9-0.4,5.8-0.6c2-0.2,4-0.3,6-0.5
	c-0.7-4.5-1.4-8.8-2-13.1c0.6-0.2,1.1-0.3,1.7-0.5c2.3,4.7,4.7,9.3,7,13.9c4.6-0.7,7.6-7.5,13.5-2.5c0.3-1.7,0.4-2.9,0.7-4.4
	c-2.3-0.1-4.2-0.2-7.2-0.3c2.5-2.3,4.5-4,7.5-6.7c0.8,4.5,1.5,7.9,2.2,11.9c5.1-1.2,9.5-3.8,12.8-8.7
	C535.5,289.9,539.4,293.5,545.4,292.7z"/>
<path d="M383.3,352.1c-1.1-0.9-2.8-2.1-5.1-3.8c-1.3,2.4-2.5,4.8-3.7,7.1c-2.9,5.6-6.3,10.4-12.9,12.6c-2.4,0.8-3.9,4.4-5.9,6.5
	c-3.3,3.4-5.3,3.2-8.5-0.8c3.3-2.5,6.5-5,9.9-7.6c-3.2-3.5-6.2-6.9-9.2-10.2c0.3-0.4,0.6-0.8,0.9-1.2c4.7,2.8,9.3,5.6,14.5,8.7
	c3.1-3.5,6.3-7,9.5-10.6c-0.2-0.3-0.4-0.5-0.6-0.8c-3.2,1.5-6.3,3-9.6,4.5c0.8-6,10.1-12.7,21.8-15.5c-0.8,2.1-1.5,4.1-2.5,7
	c3.4-2.5,5.9-4.3,8.5-6.1c-3.9-5.5-7.6-10.7-11.3-15.9c0.4-0.4,0.8-0.8,1.2-1.2c2,1.8,4.2,3.4,6.1,5.3c1.9,2,3.1,4.6,5.2,6.3
	c1.6,1.3,4.1,1.6,6.2,2.4c0.4-0.5,0.9-1.1,1.3-1.6c-3.5-6.2-7-12.5-10.5-18.7c0.4-0.3,0.8-0.7,1.2-1c2,2,4.5,3.7,6,6
	c2.5,3.7,4.4,7.7,6.5,11.7c1.4,2.7,0.5,4.7-1.9,6.2C394.8,344.8,389.2,348.4,383.3,352.1z"/>
<path d="M675.4,322.9c-1.1-0.1-1.3,0-1.4-0.1c-7.1-6.2-16.1-7.7-24.6-10.6c-4.8-1.6-9.5-3.3-12.9,3.5c-1.9-3.6-3.4-6.4-5.4-10.4
	c-1.9,7-3.6,13.1-5.3,19.2c-0.6-0.2-1.2-0.4-1.8-0.6c1.4-6.4,1.2-13.3,5-19.1c2.8-4.3,6.7-4.7,11-1.9c2.9,1.9,5.9,3.5,9,5.5
	c3.5-6.3,3.6-14,9.9-18.8c0.3,7.8-7.4,15-0.2,23.4c0.8-3.1,1.4-5.4,2-7.8c3.8,1,7.3,2,11.2,3c-0.9,3.1-1.7,5.8-2.6,8.7
	c3.9,0.7,5.8-1.5,7.2-4.3c1.2-2.5,1.7-5.3,3-7.6c1.3-2.3,3.4-4.2,5.1-6.2c0.6,0.4,1.2,0.8,1.8,1.2
	C682.8,307.8,679.1,315.4,675.4,322.9z"/>
<path d="M429.3,322.7c0.7,0.8,1.5,1.7,2.2,2.5c3.7,4.6,10.8,5.1,15.1,0.9c0.6-0.6,0.5-2.7-0.1-3.5c-1.1-1.4-2.8-2.3-5-4.1
	c4.7-3.7,9.1-7,13.7-10.6c-1.7-5.7-7.4-10.6-5.7-18.8c1.4,1.3,2.7,2,3.2,3.1c2,4.9,3.6,10,5.4,15c1.5,4-0.4,6.3-4,7.7
	c-2.1,0.9-4.2,1.7-6.8,2.7c3.1,1.6,5.6,2.9,9.1,4.7c-4.9,3.9-8.9,7.9-13.6,10.6c-7.1,4-11.8,1.4-13.5-6.4c-0.2-1.1-0.4-2.2-0.6-3.3
	C428.9,323,429.1,322.9,429.3,322.7z"/>
<path d="M609.4,295.9c-1.2-2.2-2.4-4.4-3.7-6.7c6.7,0.2,8.7,1.7,8.6,6.1c-0.1,3.5-2.1,5.3-5.4,5.4c-5.4,0.1-10.8,0-16.7,0
	c-0.3-2.1-0.5-4.6-0.9-7.6c3.6,1.3,6.6,2.4,9.6,3.5c1.1-1.3,2.1-2.5,3.3-4c1.7,1.3,3.2,2.5,4.8,3.7
	C609.1,296.2,609.3,296,609.4,295.9z"/>
<path d="M575.7,296c2.3,13.7,11.6,7.2,18.6,7.4c-3,6.6-14.2,8.9-19.4,4.1C572.8,305.5,572.8,303.5,575.7,296z"/>
<path d="M556.4,271.8c1.8,8.8,3.5,16.4,0.1,24.2C555,288.3,551.3,280.7,556.4,271.8z"/>
<path d="M776,363.8c-4.1,6.9-8.2,13.7-15.8,17.3C764.3,374.4,766.9,366.2,776,363.8z"/>
<path d="M469.2,309c-6.5-5.6-8.8-13.1-10.6-22.2C465.8,293.5,467.6,301.2,469.2,309z"/>
<path d="M413.2,334.8c-6.5-6.6-12-12.5-14.9-20.6C404.3,316.1,409.7,323.5,413.2,334.8z"/>
<path d="M684.1,326.4c1.8-7.6,1.7-16.1,10.4-21.9C692.1,313.2,690,320.6,684.1,326.4z"/>
<path d="M718.5,350.3c1.4,2.3,2.6,3.4,2.5,4.3c-0.1,1-1.5,2.4-2.4,2.5c-0.9,0-2.6-1.4-2.6-2.2C715.9,353.8,717.1,352.6,718.5,350.3z
	"/>
<path d="M591.1,287.4c-1.9,1.3-3,2.5-3.9,2.4c-1-0.1-1.9-1.4-2.8-2.2c1-1,1.8-2.4,2.9-2.8C588,284.6,589.2,286,591.1,287.4z"/>
</svg>
