<svg width="640" height="512" viewBox="0 0 640 512" fill="none" xmlns="http://www.w3.org/2000/svg">
<path d="M223.1 256C293.8 256 351.1 198.69 351.1 128C351.1 57.31 293.8 0 223.1 0C153.3 0 96 57.31 96 128C96 198.69 153.3 256 223.1 256ZM274.7 304H173.3C77.61 304 0 381.7 0 477.4C0 496.5 15.52 512 34.66 512H321.06C319.814 506.469 319.63 500.69 320.777 494.96L335.057 423.55C337 413.827 341.733 404.99 348.737 397.99L394.457 352.27C363.3 322.4 321.2 304 274.7 304ZM371.4 420.6C368.886 423.112 367.173 426.315 366.476 429.803L352.196 501.213C350.938 507.502 356.489 513.053 362.786 511.803L434.206 497.513C437.688 496.814 440.888 495.107 443.401 492.591L568.701 367.291L496.691 295.281L371.4 420.6ZM629.5 255.7L608.4 234.59C594.34 220.53 571.55 220.53 557.49 234.59L519.36 272.73L591.37 344.74L629.5 306.61C643.5 292.5 643.5 269.7 629.5 255.7Z" fill="white"/>
</svg>
